<svg xmlns="http://www.w3.org/2000/svg" width="40" height="40" fill="none"><g clip-path="url(#a)"><path fill="#E74C3C" d="M0 8a8 8 0 0 1 8-8h24a8 8 0 0 1 8 8v24a8 8 0 0 1-8 8H8a8 8 0 0 1-8-8V8Z"/><path fill="#fff" d="M27.5 25.938H25a.938.938 0 0 1 0-1.875h2.5a1.563 1.563 0 0 0 1.563-1.563v-5a1.563 1.563 0 0 0-1.563-1.563h-15a1.563 1.563 0 0 0-1.563 1.563v5a1.563 1.563 0 0 0 1.563 1.563H15a.937.937 0 1 1 0 1.875h-2.5A3.437 3.437 0 0 1 9.062 22.5v-5a3.438 3.438 0 0 1 3.438-3.438h15a3.438 3.438 0 0 1 3.438 3.438v5a3.437 3.437 0 0 1-3.438 3.438Z"/><path fill="#fff" d="M25 15.938a.95.95 0 0 1-.938-.938v-4.063h-8.125V15a.938.938 0 0 1-1.874 0v-4.375a1.563 1.563 0 0 1 1.562-1.563h8.75a1.563 1.563 0 0 1 1.563 1.563V15a.95.95 0 0 1-.938.938ZM24.375 30.938h-8.75a1.563 1.563 0 0 1-1.563-1.563v-8.75a1.563 1.563 0 0 1 1.563-1.563h8.75a1.563 1.563 0 0 1 1.563 1.563v8.75a1.563 1.563 0 0 1-1.563 1.563Zm-8.438-1.875h8.126v-8.125h-8.125v8.125Z"/></g><defs><clipPath id="a"><path fill="#fff" d="M0 0h40v40H0z"/></clipPath></defs></svg>